HIERARCHY
ROOT Hips
{
  OFFSET 0 0 0
  CHANNELS 6 Xposition Yposition Zposition Zrotation Xrotation Yrotation
  JOINT Spine
  {
    OFFSET 0 8.83416 0
    CHANNELS 3 Zrotation Xrotation Yrotation
    JOINT Spine1
    {
      OFFSET 0 17.8555 0
      CHANNELS 3 Zrotation Xrotation Yrotation
      JOINT Neck
      {
        OFFSET 0 17.7822 1.61656
        CHANNELS 3 Zrotation Xrotation Yrotation
        JOINT Head
        {
          OFFSET 0 15.0827 -2.15467
          CHANNELS 3 Zrotation Xrotation Yrotation
          End Site
          {
            OFFSET 0 26.9334 0
          }
        }
      }
      JOINT LeftShoulder
      {
        OFFSET 4.28078 15.9895 -0.632416
        CHANNELS 3 Zrotation Xrotation Yrotation
        JOINT LeftArm
        {
          OFFSET 11.7359 0 0
          CHANNELS 3 Zrotation Xrotation Yrotation
          JOINT LeftForeArm
          {
            OFFSET 33.15 0 0
            CHANNELS 3 Zrotation Xrotation Yrotation
            JOINT LeftHand
            {
              OFFSET 28.5724 0 0
              CHANNELS 3 Zrotation Xrotation Yrotation
              End Site
              {
                OFFSET 16.1601 0 0
              }
            }
          }
        }
      }
      JOINT RightShoulder
      {
        OFFSET -4.29063 15.9895 -0.632416
        CHANNELS 3 Zrotation Xrotation Yrotation
        JOINT RightArm
        {
          OFFSET -11.7359 0 0
          CHANNELS 3 Zrotation Xrotation Yrotation
          JOINT RightForeArm
          {
            OFFSET -33.15 0 0
            CHANNELS 3 Zrotation Xrotation Yrotation
            JOINT RightHand
            {
              OFFSET -28.5724 0 0
              CHANNELS 3 Zrotation Xrotation Yrotation
              End Site
              {
                OFFSET -16.1601 0 0
              }
            }
          }
        }
      }
    }
  }
  JOINT LeftUpLeg
  {
    OFFSET 10.7734 0 0
    CHANNELS 3 Zrotation Xrotation Yrotation
    JOINT LeftLeg
    {
      OFFSET 0 -54.0627 0
      CHANNELS 3 Zrotation Xrotation Yrotation
      JOINT LeftFoot
      {
        OFFSET 0 -48.9411 0
        CHANNELS 3 Zrotation Xrotation Yrotation
        JOINT LeftToeBase
        {
          OFFSET 0 -7.00269 16.1601
          CHANNELS 3 Zrotation Xrotation Yrotation
          End Site
          {
            OFFSET 0 0 4.30935
          }
        }
      }
    }
  }
  JOINT RightUpLeg
  {
    OFFSET -10.7734 0 0
    CHANNELS 3 Zrotation Xrotation Yrotation
    JOINT RightLeg
    {
      OFFSET 0 -54.0627 0
      CHANNELS 3 Zrotation Xrotation Yrotation
      JOINT RightFoot
      {
        OFFSET 0 -48.9411 0
        CHANNELS 3 Zrotation Xrotation Yrotation
        JOINT RightToeBase
        {
          OFFSET 0 -7.00269 16.1601
          CHANNELS 3 Zrotation Xrotation Yrotation
          End Site
          {
            OFFSET 0 0 4.30935
          }
        }
      }
    }
  }
}
MOTION
Frames:	15
Frame Time:	0.00833333
165.63 111.313 24.5581 0.0679472 -3.26051 -85.0467 -3.30848 -20.4632 -2.04525 2.21548 8.42939 -1.61117 11.2484 43.7125 2.76962 -20.1155 -23.4705 -0.805872 16.9819 -0.743918 4.09055 -8.74002 4.46983 -11.8695 0.94233 -8.83696 4.30856 2.27899 -8.83091 2.08912 -12.9084 -2.91659 10.94 2.06899 -4.42774 6.55783 -2.45471 -2.67445 -6.87049 -7.42375 -2.75103 -1.09003 -0.869412 6.78178 -3.52974 0.189609 5.84532 1.66034 -2.4108 -10.5609 10.0879 -1.86361e-016 -4.82985e-016 -0 -2.83621 8.64472 -2.32593 -1.56943 2.19575 -2.28762 0.585512 -11.9939 -15.5872 -3.97569e-016 2.48481e-016 -3.18055e-015 
165.63 111.333 24.5209 0.115505 -3.23138 -85.067 -3.2957 -20.4634 -2.02517 2.22143 8.36907 -1.5928 11.1548 43.5892 2.8474 -19.8997 -23.1827 -0.643752 16.9989 -0.710798 4.02405 -8.783 4.39301 -11.8522 0.933084 -8.79493 4.34012 2.24945 -8.78952 2.07854 -12.84 -2.92011 11.0213 2.04021 -5.03683 6.66598 -2.37344 -2.35779 -7.20578 -7.52758 -2.45441 -0.802137 -0.758868 6.72252 -3.78132 0.0200947 5.85726 1.89904 -2.37719 -10.5206 10.1152 8.69683e-017 -4.42606e-016 1.59028e-015 -2.80311 8.58534 -2.1492 -1.53732 2.19676 -2.49475 0.54643 -11.9056 -15.5543 -1.98785e-016 1.98785e-016 -0 
165.63 111.354 24.4821 0.160884 -3.20942 -85.0749 -3.27164 -20.4609 -2.03175 2.21683 8.36374 -1.60337 11.108 43.8161 2.90088 -19.9434 -23.4454 -0.631527 16.9955 -0.704567 4.09916 -8.7926 4.39389 -11.8933 0.914977 -8.80016 4.318 2.26202 -8.79289 2.11856 -12.8223 -2.98981 11.1255 2.03115 -4.95496 6.5814 -2.37925 -2.33915 -7.14582 -7.44769 -2.43354 -0.831408 -0.764163 6.61101 -3.64078 0.109389 5.98489 1.86346 -2.44095 -10.5015 10.0282 -9.93923e-017 5.03174e-016 -0 -2.79237 8.48992 -2.20077 -1.47988 2.28029 -2.47254 0.502575 -11.8608 -15.5306 -5.96354e-016 -2.48481e-016 -3.18055e-015 
165.627 111.372 24.4417 0.21283 -3.18684 -85.0864 -3.23671 -20.4473 -2.02002 2.19487 8.34147 -1.59632 11.0596 43.4667 2.93484 -19.7697 -22.9029 -0.503616 17.02 -0.65612 4.15853 -8.84557 4.29747 -11.968 0.92798 -8.77622 4.34117 2.26158 -8.76982 2.10866 -12.8215 -2.97879 11.0982 2.04673 -4.97899 6.64186 -2.37554 -2.40011 -7.10995 -7.51746 -2.49117 -0.859682 -0.745666 6.34415 -2.30303 0.265485 6.42256 0.476037 -2.51687 -10.6253 10.0871 -1.27346e-016 -2.03444e-016 -4.77083e-015 -2.76666 8.4022 -2.17254 -1.52987 2.03111 -5.87105 1.24909 -11.5208 -11.979 1.98785e-016 1.98785e-016 -0 
165.641 111.38 24.3995 0.336779 -3.15291 -85.0952 -3.20848 -20.4961 -1.99984 2.17688 8.31203 -1.57799 11.2123 43.3539 2.85699 -19.8612 -22.6688 -0.54807 17.0563 -0.645242 4.1502 -8.8862 4.25282 -11.9892 0.925097 -8.77143 4.35091 2.24406 -8.76557 2.0953 -12.7906 -2.95742 11.0702 2.0517 -5.02838 6.68479 -2.39658 -2.39452 -7.09323 -7.57559 -2.4813 -0.932468 -0.695223 6.12825 -2.31861 0.240699 6.58678 0.453297 -2.52714 -10.6701 10.1364 -9.93923e-017 -7.76503e-017 -1.59028e-015 -2.73545 8.23132 -2.07158 -1.49195 2.09535 -5.87546 1.17213 -11.5101 -12.0982 1.98785e-016 0 -0 
165.646 111.393 24.3599 0.385652 -3.13785 -85.1102 -3.21082 -20.4666 -1.9827 2.20495 8.25556 -1.56221 11.2297 43.4274 2.87302 -19.8938 -22.6853 -0.530699 17.0439 -0.659894 4.08243 -8.89822 4.27606 -11.9263 0.917727 -8.8043 4.31794 2.20291 -8.79919 2.06774 -12.8108 -2.88122 11.1108 2.06361 -5.07235 6.64855 -2.40326 -2.38786 -7.07358 -7.75476 -2.47141 -0.958585 -0.646241 6.09393 -3.20541 0.0961552 6.53064 1.42928 -2.56086 -10.5988 10.071 3.72721e-017 -7.0817e-016 1.59028e-015 -2.71903 8.11806 -2.08398 -1.43456 2.22151 -5.64846 1.08329 -11.5451 -12.3867 1.98785e-016 9.93923e-017 -0 
165.656 111.404 24.3183 0.43353 -3.11946 -85.1305 -3.21002 -20.4203 -1.961 2.24332 8.15886 -1.54286 11.1676 43.6971 2.95342 -19.8937 -22.965 -0.476428 17.0132 -0.648407 3.97763 -8.91069 4.2698 -11.8434 0.89702 -8.82618 4.28713 2.27906 -8.819 2.05256 -12.7515 -2.88501 11.2378 1.98083 -4.9953 6.51686 -2.42658 -2.40758 -7.05107 -7.55432 -2.49855 -0.886365 -0.612302 5.94911 -3.17397 0.0807035 6.71451 1.38024 -2.56139 -10.6343 10.1202 -9.93923e-017 -7.3923e-016 1.59028e-015 -2.6888 8.01975 -1.86494 -1.41637 2.29417 -5.85386 1.04657 -11.525 -12.4088 0 3.97569e-016 -0 
165.678 111.415 24.2793 0.505252 -3.11236 -85.1531 -3.19994 -20.3958 -1.93692 2.27217 8.10152 -1.52224 11.3714 43.5321 2.76701 -20.0533 -22.5877 -0.625099 16.981 -0.646764 3.9072 -8.92421 4.27717 -11.7841 0.882804 -8.84476 4.27178 2.35671 -8.83616 2.02312 -12.7831 -2.82593 11.2049 1.99334 -5.12397 6.58569 -2.44315 -2.36092 -7.0535 -7.56499 -2.45325 -0.880237 -0.609251 5.69745 -2.55898 0.162684 7.05782 0.669395 -2.57747 -10.7262 10.2378 -7.45443e-017 -5.03174e-016 -0 -2.68029 7.86578 -1.81886 -1.39615 2.41959 -5.86077 1.05185 -11.5567 -12.4802 1.98785e-016 0 -3.18055e-015 
165.693 111.42 24.2334 0.575306 -3.10254 -85.1345 -3.21753 -20.4016 -1.95078 2.34287 8.09802 -1.53765 11.402 43.8266 2.70215 -20.2221 -22.9189 -0.759306 16.8853 -0.680882 3.85696 -8.89883 4.33083 -11.7183 0.880365 -8.85918 4.25072 2.4627 -8.84891 2.00811 -12.8181 -2.84456 11.2829 1.94931 -4.97471 6.5179 -2.44001 -2.42892 -7.01929 -7.53469 -2.51983 -0.891227 -0.549175 5.60289 -3.40122 -0.0123153 7.07284 1.49834 -2.53247 -10.7049 10.2507 -3.10601e-017 -9.62863e-017 -3.18055e-015 -2.65715 7.73834 -1.8703 -1.37576 2.52518 -5.73366 0.972866 -11.5778 -12.6056 -3.97569e-016 5.96354e-016 -0 
165.725 111.422 24.1889 0.665178 -3.08245 -85.1496 -3.19942 -20.3968 -1.93103 2.39112 8.0858 -1.52448 11.2659 43.8163 2.76221 -20.1236 -22.9233 -0.704237 16.838 -0.662933 3.84654 -8.90811 4.30947 -11.7281 0.881611 -8.8814 4.24344 2.54507 -8.87001 2.00618 -12.8899 -2.78831 11.2354 1.92402 -3.44189 6.17419 -2.62156 -3.19797 -6.19411 -7.43941 -3.24034 -1.52985 -0.504103 5.39034 -3.67259 -0.0902328 7.28799 1.71036 -2.53192 -10.7826 10.3322 -1.73937e-016 2.70223e-016 1.59028e-015 -2.64033 7.58367 -1.67223 -1.32345 2.62767 -5.68143 0.846252 -11.6025 -12.8742 -1.98785e-016 9.93923e-017 -0 
165.752 111.424 24.1447 0.719494 -3.05162 -85.1783 -3.13255 -20.3899 -1.8937 2.37609 8.15186 -1.49967 11.2277 43.7378 2.77445 -20.0935 -22.9067 -0.699647 16.8247 -0.718946 3.91393 -8.90335 4.28588 -11.8212 0.884355 -8.82993 4.27639 2.5371 -8.82075 1.91624 -12.924 -2.7815 11.1775 1.9759 -4.97652 6.65378 -2.49519 -2.45536 -7.02217 -7.55723 -2.54647 -0.937641 -0.439964 5.22797 -3.8419 -0.172109 7.47618 1.84614 -2.45125 -10.8629 10.4064 1.42488e-016 3.78545e-016 -0 -2.61598 7.4527 -1.59699 -1.27219 2.76142 -5.45273 0.721696 -11.6463 -13.1774 -0 0 3.18055e-015 
165.798 111.426 24.1103 0.771281 -3.01369 -85.2816 -2.99043 -20.3457 -1.81454 2.34941 8.18463 -1.44604 11.1759 43.6533 2.74088 -20.091 -22.8649 -0.75268 16.8059 -0.697988 3.92625 -8.93533 4.2271 -11.8121 0.880687 -8.81428 4.24826 2.5314 -8.80558 1.89013 -12.9727 -2.85297 11.2427 1.96082 -4.92847 6.5894 -2.49602 -2.46793 -7.01266 -7.58189 -2.56055 -0.909606 -0.39226 5.05831 -3.90596 -0.229392 7.67293 1.99173 -2.36999 -10.9458 10.4351 -1.61513e-016 -4.37947e-016 1.59028e-015 -2.60796 7.31255 -1.28608 -1.2003 2.87483 -5.42773 0.602145 -11.6653 -13.4277 3.97569e-016 4.96962e-017 -0 
165.825 111.426 24.0681 0.746023 -3.01032 -85.3475 -2.8804 -20.2759 -1.76961 2.26909 8.31009 -1.41947 11.0973 43.6051 2.79498 -20.0672 -22.9312 -0.728218 16.8014 -0.749201 4.00709 -8.91765 4.2502 -11.8297 0.877549 -8.82941 4.20833 2.59944 -8.81783 1.93863 -12.9199 -2.98698 11.2597 1.87862 -4.87764 6.62279 -2.45133 -2.46637 -7.01922 -7.61767 -2.55559 -0.917658 -0.351031 4.99353 -4.25803 -0.341025 7.8283 2.35727 -2.3277 -10.9692 10.484 -0 -5.46658e-016 -0 -2.6192 7.22982 -1.39119 -1.14123 3.06745 -4.95166 0.450542 -11.7117 -13.7694 -5.51738e-033 -9.93923e-017 -3.18055e-015 
165.878 111.419 24.0341 0.83434 -3.01269 -85.379 -2.78957 -20.2565 -1.71506 2.17651 8.33271 -1.37537 11.497 43.1276 2.72652 -20.5237 -22.4885 -0.829118 16.827 -0.777116 3.97968 -8.94708 4.22223 -11.8218 0.88034 -8.81768 4.2209 2.63642 -8.80624 1.92495 -12.8554 -2.99098 11.2977 1.79747 -4.77193 6.54427 -2.48134 -2.50278 -6.9674 -7.58035 -2.58928 -0.973655 -0.329791 4.72391 -3.95622 -0.36684 8.14915 2.039 -2.28022 -11.0959 10.534 0 5.28022e-016 -0 -2.6504 7.03836 -1.35057 -1.10951 3.08688 -6.39905 0.663272 -11.6396 -12.2511 -1.98785e-016 2.98177e-016 6.36111e-015 
165.935 111.411 23.9995 0.951045 -3.03719 -85.3616 -2.76727 -20.2528 -1.71191 2.1764 8.34452 -1.37644 11.0723 43.6723 2.74993 -20.1301 -23.1479 -0.832419 16.7483 -0.86676 3.99098 -8.90195 4.32818 -11.8135 0.884547 -8.83596 4.21911 2.65609 -8.82385 1.93316 -12.9279 -2.9586 11.306 1.79032 -4.83018 6.57509 -2.49357 -2.49629 -7.00503 -7.58992 -2.58637 -0.942146 -0.309089 4.50965 -4.44287 -0.519917 8.2656 2.56336 -2.22278 -11.132 10.477 4.96962e-017 7.45443e-017 1.59028e-015 -2.7007 6.80749 -1.43973 -1.05311 3.24879 -6.53125 0.601298 -11.718 -12.0454 1.65521e-032 9.93923e-017 -9.54166e-015 
